<svg width="8193" height="2689" viewBox="0 0 8193 2689" fill="none" xmlns="http://www.w3.org/2000/svg">
<g clip-path="url(#clip0_637_38)">
<path fill-rule="evenodd" clip-rule="evenodd" d="M1749.02 533.996C2019.38 710.853 2198 1016.32 2198 1363.5C2198 1910.54 1754.54 2354 1207.5 2354C660.462 2354 217 1910.54 217 1363.5C217 825.257 646.317 387.286 1181.2 373.342L1224.87 156.122C1219.09 156.041 1213.3 156 1207.5 156C540.616 156 0 696.616 0 1363.5C0 2030.38 540.616 2571 1207.5 2571C1874.38 2571 2415 2030.38 2415 1363.5C2415 937.89 2194.8 563.71 1862.12 348.668L1749.02 533.996Z" fill="#0E9547"/>
<path d="M1274.5 1028L1696 0L1743 54L1345.5 1008L1274.5 1028Z" fill="#AA6228"/>
<path d="M742 2625.5L1803.5 896.5L1841 944L762.5 2689.5L742 2625.5Z" fill="#AA6228"/>
<path d="M762.5 2689.5L732.5 2634.5L739.5 2617L762.5 2689.5Z" fill="#AA6228"/>
<path fill-rule="evenodd" clip-rule="evenodd" d="M638 1421.5L1693 -1L1695.27 1.77822L1274.5 1028L1345.5 1008L1346.09 1006.58L1804 895.5L1805.23 898.69L1803.5 896.5L742 2625.5L734.26 2638.08L732.5 2634.5L1248 1303.5L638 1421.5Z" fill="#F69320"/>
<path fill-rule="evenodd" clip-rule="evenodd" d="M2753 2339.41L2820 340.416H4092.5C4239.17 338.083 4540.5 417.415 4572.5 753.415C4604.5 1089.41 4341.5 1253.41 4206 1293.41C4357 1326.75 4641.7 1482.71 4572.5 1839.91L5381 315.416H6137.5L6802.5 2121.91L6771.5 1745.91C6880.83 1789.58 7138.9 1880.41 7296.5 1894.41C7454.1 1908.41 7543.17 1801.25 7568 1745.91C7570.83 1719.58 7524.9 1622.31 7318.5 1443.91C7291.46 1420.54 7264.79 1397.95 7238.73 1375.86C7016.15 1187.26 6837.47 1035.85 6841.5 753.415C6846 437.916 7101.35 330.234 7212.5 284.916C7214.72 284.009 7216.95 283.095 7219.2 282.174C7312.85 243.768 7431.6 195.07 8145 284.916L8193 792.416C8131.67 751.582 7945.2 673.416 7690 687.416C7434.8 701.416 7464.33 862.249 7511 940.915L8036 1382.91C8088.33 1439.75 8193 1598.91 8193 1780.91C8193 2008.41 7992.5 2265.91 7655.5 2327.41C7385.9 2376.61 7021.17 2315.91 6872.5 2279.41L6888 2312.41H6204.5L6019 1745.91H5269L5020 2312.41H4319.5L4393 2194.41C4327.17 2237.41 4170.4 2324.91 4070 2330.91L2753 2339.41ZM3381.5 1107.92L3398.5 726.916H3762.5C3839.67 726.916 3987.9 763.616 3963.5 910.416C3939.1 1057.22 3819.33 1103.25 3762.5 1107.92H3381.5ZM3344 1931.92L3361 1502.92H3820.5C3879.5 1519.92 3994.8 1589.32 3984 1730.92C3973.2 1872.52 3850.17 1923.92 3790 1931.92H3344ZM5729 742.916L5450 1325.92H5922L5729 742.916Z" fill="#0E9547"/>
<path d="M2820 340.416V339.916H2819.52L2819.5 340.399L2820 340.416ZM2753 2339.41L2752.5 2339.4L2752.48 2339.92L2753 2339.91L2753 2339.41ZM4092.5 340.416V340.916L4092.51 340.916L4092.5 340.416ZM4572.5 753.415L4572 753.463L4572.5 753.415ZM4206 1293.41L4205.86 1292.94L4205.89 1293.9L4206 1293.41ZM4572.5 1839.91L4572.01 1839.82L4572.94 1840.15L4572.5 1839.91ZM5381 315.416V314.916H5380.7L5380.56 315.182L5381 315.416ZM6137.5 315.416L6137.97 315.243L6137.85 314.916H6137.5V315.416ZM6802.5 2121.91L6802.03 2122.09L6803 2121.87L6802.5 2121.91ZM6771.5 1745.91L6771.69 1745.45L6770.94 1745.15L6771 1745.96L6771.5 1745.91ZM7568 1745.91L7568.46 1746.12L7568.49 1746.05L7568.5 1745.97L7568 1745.91ZM7318.5 1443.91L7318.17 1444.29L7318.17 1444.29L7318.5 1443.91ZM7238.73 1375.86L7239.06 1375.48L7239.06 1375.48L7238.73 1375.86ZM6841.5 753.415L6841 753.408L6841 753.408L6841.5 753.415ZM7212.5 284.916L7212.31 284.453L7212.31 284.453L7212.5 284.916ZM7219.2 282.174L7219.39 282.637L7219.39 282.637L7219.2 282.174ZM8145 284.916L8145.5 284.869L8145.46 284.47L8145.06 284.42L8145 284.916ZM8193 792.416L8192.72 792.832L8193.6 793.413L8193.5 792.368L8193 792.416ZM7511 940.915L7510.57 941.17L7510.61 941.243L7510.68 941.298L7511 940.915ZM8036 1382.91L8036.37 1382.58L8036.35 1382.55L8036.32 1382.53L8036 1382.91ZM7655.5 2327.41L7655.41 2326.92L7655.41 2326.92L7655.5 2327.41ZM6872.5 2279.41L6872.62 2278.93L6871.6 2278.68L6872.05 2279.63L6872.5 2279.41ZM6888 2312.41V2312.91H6888.79L6888.45 2312.2L6888 2312.41ZM6204.5 2312.41L6204.02 2312.57L6204.14 2312.91H6204.5V2312.41ZM6019 1745.91L6019.48 1745.76L6019.36 1745.41H6019V1745.91ZM5269 1745.91V1745.41H5268.67L5268.54 1745.71L5269 1745.91ZM5020 2312.41V2312.91H5020.33L5020.46 2312.61L5020 2312.41ZM4319.5 2312.41L4319.08 2312.15L4318.6 2312.91H4319.5V2312.41ZM4393 2194.41L4393.42 2194.68L4392.73 2194L4393 2194.41ZM4070 2330.91L4070 2331.41L4070.02 2331.41L4070.03 2331.41L4070 2330.91ZM3398.5 726.916V726.416H3398.02L3398 726.894L3398.5 726.916ZM3381.5 1107.92L3381 1107.89L3380.98 1108.42H3381.5V1107.92ZM3762.5 1107.92V1108.42H3762.52L3762.54 1108.41L3762.5 1107.92ZM3361 1502.92V1502.42H3360.52L3360.5 1502.9L3361 1502.92ZM3344 1931.92L3343.5 1931.9L3343.48 1932.42H3344V1931.92ZM3820.5 1502.92L3820.64 1502.44L3820.57 1502.42H3820.5V1502.92ZM3984 1730.92L3983.5 1730.88L3983.5 1730.88L3984 1730.92ZM3790 1931.92V1932.42H3790.03L3790.07 1932.41L3790 1931.92ZM5450 1325.92L5449.55 1325.7L5449.21 1326.42H5450V1325.92ZM5729 742.916L5729.47 742.759L5729.08 741.581L5728.55 742.701L5729 742.916ZM5922 1325.92V1326.42H5922.69L5922.47 1325.76L5922 1325.92ZM2819.5 340.399L2752.5 2339.4L2753.5 2339.43L2820.5 340.433L2819.5 340.399ZM4092.5 339.916H2820V340.916H4092.5V339.916ZM4573 753.368C4556.98 585.2 4473.55 481.234 4375.77 419.618C4278 358.014 4165.9 338.748 4092.49 339.916L4092.51 340.916C4165.76 339.75 4277.66 358.984 4375.23 420.464C4472.78 481.93 4556.02 585.63 4572 753.463L4573 753.368ZM4206.14 1293.89C4273.97 1273.87 4373.68 1222.83 4452.44 1134.75C4531.21 1046.66 4589.01 921.521 4573 753.368L4572 753.463C4587.99 921.309 4530.29 1046.17 4451.69 1134.08C4373.07 1222 4273.53 1272.96 4205.86 1292.94L4206.14 1293.89ZM4572.99 1840.01C4607.62 1661.25 4553.7 1532.79 4472.19 1444.87C4390.71 1356.98 4281.68 1309.61 4206.11 1292.93L4205.89 1293.9C4281.32 1310.55 4390.14 1357.84 4471.46 1445.55C4552.75 1533.25 4606.58 1661.38 4572.01 1839.82L4572.99 1840.01ZM5380.56 315.182L4572.06 1839.68L4572.94 1840.15L5381.44 315.65L5380.56 315.182ZM6137.5 314.916H5381V315.916H6137.5V314.916ZM6802.97 2121.74L6137.97 315.243L6137.03 315.589L6802.03 2122.09L6802.97 2121.74ZM6771 1745.96L6802 2121.95L6803 2121.87L6772 1745.87L6771 1745.96ZM7296.54 1893.92C7217.8 1886.92 7113.92 1860.73 7016.05 1830.81C6918.18 1800.9 6826.34 1767.28 6771.69 1745.45L6771.31 1746.38C6825.99 1768.22 6917.86 1801.85 7015.75 1831.77C7113.64 1861.69 7217.6 1887.91 7296.46 1894.91L7296.54 1893.92ZM7567.54 1745.71C7542.77 1800.92 7453.87 1907.89 7296.54 1893.92L7296.46 1894.91C7454.33 1908.94 7543.57 1801.58 7568.46 1746.12L7567.54 1745.71ZM7318.17 1444.29C7421.36 1533.48 7484.41 1602.37 7521.31 1652.24C7539.76 1677.17 7551.67 1697.34 7558.78 1712.91C7565.9 1728.5 7568.2 1739.42 7567.5 1745.86L7568.5 1745.97C7569.22 1739.25 7566.83 1728.13 7559.69 1712.5C7552.54 1696.85 7540.59 1676.62 7522.11 1651.64C7485.16 1601.7 7422.04 1532.75 7318.83 1443.54L7318.17 1444.29ZM7238.41 1376.25C7264.47 1398.33 7291.13 1420.92 7318.17 1444.29L7318.83 1443.54C7291.78 1420.16 7265.12 1397.57 7239.06 1375.48L7238.41 1376.25ZM6841 753.408C6836.97 1036.11 7015.86 1187.66 7238.41 1376.25L7239.06 1375.48C7016.44 1186.85 6837.98 1035.58 6842 753.422L6841 753.408ZM7212.31 284.453C7101.17 329.767 6845.51 437.559 6841 753.408L6842 753.422C6846.49 438.273 7101.53 330.702 7212.69 285.379L7212.31 284.453ZM7219.01 281.711C7216.76 282.632 7214.53 283.547 7212.31 284.453L7212.69 285.379C7214.91 284.472 7217.14 283.557 7219.39 282.637L7219.01 281.711ZM8145.06 284.42C7788.35 239.496 7580.28 229.205 7449.67 234.951C7319.03 240.699 7265.88 262.492 7219.01 281.711L7219.39 282.637C7266.18 263.45 7319.22 241.692 7449.72 235.95C7580.24 230.208 7788.25 240.49 8144.94 285.412L8145.06 284.42ZM8193.5 792.368L8145.5 284.869L8144.5 284.963L8192.5 792.463L8193.5 792.368ZM7690.03 687.915C7945.12 673.921 8131.48 752.061 8192.72 792.832L8193.28 791.999C8131.85 751.104 7945.28 672.911 7689.97 686.916L7690.03 687.915ZM7511.43 940.66C7488.13 901.381 7469.16 841.672 7487.77 790.085C7506.35 738.568 7562.52 694.91 7690.03 687.915L7689.97 686.916C7562.28 693.921 7505.61 737.68 7486.83 789.746C7468.07 841.743 7487.2 901.783 7510.57 941.17L7511.43 940.66ZM8036.32 1382.53L7511.32 940.533L7510.68 941.298L8035.68 1383.3L8036.32 1382.53ZM8193.5 1780.91C8193.5 1598.75 8088.75 1439.46 8036.37 1382.58L8035.63 1383.25C8087.92 1440.03 8192.5 1599.08 8192.5 1780.91H8193.5ZM7655.59 2327.91C7992.79 2266.37 8193.5 2008.7 8193.5 1780.91H8192.5C8192.5 2008.13 7992.21 2265.46 7655.41 2326.92L7655.59 2327.91ZM6872.38 2279.9C7021.07 2316.4 7385.88 2377.12 7655.59 2327.91L7655.41 2326.92C7385.92 2376.1 7021.27 2315.42 6872.62 2278.93L6872.38 2279.9ZM6888.45 2312.2L6872.95 2279.2L6872.05 2279.63L6887.55 2312.63L6888.45 2312.2ZM6204.5 2312.91H6888V2311.91H6204.5V2312.91ZM6018.52 1746.07L6204.02 2312.57L6204.98 2312.26L6019.48 1745.76L6018.52 1746.07ZM5269 1746.41H6019V1745.41H5269V1746.41ZM5020.46 2312.61L5269.46 1746.12L5268.54 1745.71L5019.54 2312.21L5020.46 2312.61ZM4319.5 2312.91H5020V2311.91H4319.5V2312.91ZM4392.58 2194.15L4319.08 2312.15L4319.92 2312.68L4393.42 2194.68L4392.58 2194.15ZM4070.03 2331.41C4120.33 2328.41 4184.69 2305 4244.67 2276.99C4304.67 2248.98 4360.34 2216.34 4393.27 2194.83L4392.73 2194C4359.83 2215.48 4304.2 2248.1 4244.25 2276.09C4184.29 2304.08 4120.07 2327.42 4069.97 2330.41L4070.03 2331.41ZM2753 2339.91L4070 2331.41L4070 2330.41L2753 2338.91L2753 2339.91ZM3398 726.894L3381 1107.89L3382 1107.94L3399 726.939L3398 726.894ZM3762.5 726.416H3398.5V727.416H3762.5V726.416ZM3963.99 910.498C3970.11 873.71 3965.41 843.785 3953.69 819.595C3941.97 795.409 3923.24 776.994 3901.35 763.194C3857.59 735.601 3801.14 726.416 3762.5 726.416V727.416C3801.03 727.416 3857.27 736.582 3900.82 764.039C3922.59 777.764 3941.17 796.049 3952.79 820.031C3964.41 844.011 3969.09 873.722 3963.01 910.334L3963.99 910.498ZM3762.54 1108.41C3819.52 1103.74 3939.54 1057.6 3963.99 910.498L3963.01 910.334C3938.66 1056.83 3819.15 1102.76 3762.46 1107.42L3762.54 1108.41ZM3381.5 1108.42H3762.5V1107.42H3381.5V1108.42ZM3360.5 1502.9L3343.5 1931.9L3344.5 1931.94L3361.5 1502.94L3360.5 1502.9ZM3820.5 1502.42H3361V1503.42H3820.5V1502.42ZM3984.5 1730.95C3989.91 1660 3963.72 1607.11 3928.79 1569.85C3893.87 1532.6 3850.21 1510.96 3820.64 1502.44L3820.36 1503.4C3849.79 1511.88 3893.28 1533.43 3928.06 1570.53C3962.83 1607.62 3988.89 1660.24 3983.5 1730.88L3984.5 1730.95ZM3790.07 1932.41C3820.23 1928.4 3866.11 1913.52 3905.82 1881.91C3945.55 1850.28 3979.09 1801.91 3984.5 1730.95L3983.5 1730.88C3978.11 1801.52 3944.74 1849.65 3905.2 1881.13C3865.65 1912.61 3819.94 1927.43 3789.93 1931.42L3790.07 1932.41ZM3344 1932.42H3790V1931.42H3344V1932.42ZM5450.45 1326.13L5729.45 743.132L5728.55 742.701L5449.55 1325.7L5450.45 1326.13ZM5922 1325.42H5450V1326.42H5922V1325.42ZM5728.53 743.074L5921.53 1326.07L5922.47 1325.76L5729.47 742.759L5728.53 743.074Z" fill="black"/>
</g>
<defs>
<clipPath id="clip0_637_38">
<rect width="8193" height="2689" fill="white"/>
</clipPath>
</defs>
</svg>
